<?xml version="1.0" encoding="UTF-8"?>
<svg xmlns="http://www.w3.org/2000/svg" xmlns:xlink="http://www.w3.org/1999/xlink" viewBox="0 0 512 512">
  <defs>
    <style>
      .cls-1 {
        fill: url(#linear-gradient);
      }

      .cls-2, .cls-3 {
        fill: #fad305;
      }

      .cls-4, .cls-5 {
        fill: #fff;
      }

      .cls-6 {
        fill: #592d89;
      }

      .cls-7 {
        fill: #f2f2f2;
        mix-blend-mode: multiply;
      }

      .cls-8 {
        fill: url(#linear-gradient-3);
      }

      .cls-9 {
        fill: url(#linear-gradient-4);
      }

      .cls-10 {
        fill: url(#linear-gradient-2);
      }

      .cls-3, .cls-5, .cls-11 {
        fill-rule: evenodd;
      }

      .cls-12 {
        isolation: isolate;
      }

      .cls-11 {
        fill: url(#linear-gradient-5);
      }
    </style>
    <linearGradient id="linear-gradient" x1="198.81" y1="253.47" x2="251.36" y2="253.47" gradientUnits="userSpaceOnUse">
      <stop offset="0" stop-color="#c7c0bf"/>
      <stop offset="1" stop-color="#fff"/>
    </linearGradient>
    <linearGradient id="linear-gradient-2" x1="263.14" x2="315.69" xlink:href="#linear-gradient"/>
    <linearGradient id="linear-gradient-3" x1="257.25" y1="242.87" x2="257.25" y2="200.69" gradientUnits="userSpaceOnUse">
      <stop offset="0" stop-color="#ffba1b"/>
      <stop offset="1" stop-color="#e93800"/>
    </linearGradient>
    <linearGradient id="linear-gradient-4" x1="257.25" y1="216.78" x2="257.25" y2="191.62" xlink:href="#linear-gradient-3"/>
    <linearGradient id="linear-gradient-5" x1="257.25" y1="191.76" x2="257.25" y2="155.28" gradientUnits="userSpaceOnUse">
      <stop offset="0" stop-color="#e93800"/>
      <stop offset="1" stop-color="#ffba1b"/>
    </linearGradient>
  </defs>
  <g class="cls-12">
    <g id="Layer_1" data-name="Layer 1">
      <g>
        <circle class="cls-6" cx="259.06" cy="253.52" r="216.61" transform="translate(-103.39 257.44) rotate(-45)"/>
        <path class="cls-5" d="m259.06,51.56c111.54,0,201.96,90.42,201.96,201.96s-90.42,201.96-201.96,201.96S57.1,365.06,57.1,253.52,147.52,51.56,259.06,51.56"/>
        <path class="cls-3" d="m397.24,245.11l-9.84-1.16c-.36-4.88-1-9.69-1.88-14.4l9.19-3.67c-1.2-6.29-2.24-10.2-4.35-16.25l-9.78,1.42c-1.61-4.6-3.46-9.08-5.56-13.43l7.92-5.91c-2.79-5.77-4.81-9.27-8.41-14.57l-9.1,3.91c-2.73-4.01-5.69-7.85-8.85-11.52l6.14-7.79c-4.18-4.85-7.04-7.71-11.89-11.89l-7.79,6.14c-3.66-3.16-7.51-6.11-11.52-8.85l3.91-9.1c-5.3-3.6-8.8-5.62-14.57-8.41l-5.91,7.92c-4.34-2.1-8.83-3.95-13.43-5.56l1.42-9.78c-6.05-2.11-9.95-3.15-16.25-4.35l-3.67,9.19c-4.72-.89-9.52-1.53-14.4-1.88l-1.16-9.84c-6.39-.47-10.43-.47-16.82,0l-1.16,9.84c-4.88.36-9.69,1-14.4,1.88l-3.67-9.19c-6.29,1.2-10.2,2.24-16.25,4.35l1.42,9.78c-4.6,1.61-9.08,3.46-13.43,5.56l-5.91-7.92c-5.77,2.79-9.27,4.81-14.57,8.41l3.91,9.1c-4.01,2.73-7.85,5.69-11.52,8.85l-7.79-6.14c-4.85,4.18-7.71,7.04-11.89,11.89l6.14,7.79c-3.16,3.66-6.11,7.51-8.85,11.52l-9.1-3.91c-3.6,5.3-5.62,8.8-8.41,14.57l7.92,5.91c-2.1,4.34-3.95,8.83-5.56,13.43l-9.78-1.42c-2.11,6.05-3.15,9.95-4.35,16.25l9.2,3.67c-.89,4.72-1.53,9.52-1.88,14.4l-9.84,1.16c-.47,6.39-.47,10.43,0,16.82l9.84,1.16c4.9,66.6,60.48,119.12,128.34,119.12s123.44-52.51,128.34-119.12l9.84-1.16c.47-6.39.47-10.43,0-16.82Zm-138.18,125.11c-64.45,0-116.7-52.25-116.7-116.7s52.25-116.7,116.7-116.7,116.7,52.25,116.7,116.7-52.25,116.7-116.7,116.7Z"/>
        <path class="cls-2" d="m412.23,100.35c-39.2-39.2-93.35-63.44-153.17-63.44s-113.97,24.25-153.17,63.44c-39.2,39.2-63.44,93.35-63.44,153.17s24.25,113.97,63.44,153.17c39.2,39.2,93.35,63.44,153.17,63.44s113.97-24.25,153.17-63.44c39.2-39.2,63.44-93.35,63.44-153.17s-24.25-113.97-63.44-153.17M259.06,28.5c62.14,0,118.39,25.19,159.11,65.91,40.72,40.72,65.91,96.98,65.91,159.11s-25.19,118.39-65.91,159.11c-40.72,40.72-96.98,65.91-159.11,65.91s-118.39-25.19-159.11-65.91c-40.72-40.72-65.91-96.98-65.91-159.11s25.19-118.39,65.91-159.11c40.72-40.72,96.98-65.91,159.11-65.91Z"/>
        <g>
          <path class="cls-6" d="m79.57,270.97l23.36-2.76.92,7.79-23.36,2.76.75,6.4-6.59.78-2.43-20.58,6.59-.78.76,6.4Z"/>
          <path class="cls-6" d="m79.49,235.14l-.48,9.31,5.03.26.46-8.79,6.63.34-.46,8.79,5.19.27.48-9.31,6.63.34-.89,17.14-30.12-1.56.89-17.14,6.63.34Z"/>
          <path class="cls-6" d="m103.29,227.52l-27.51-13.39,2.18-7.45,17.13-1.28-13.75-10.28,2.18-7.45,30.38,3.56-2.19,7.49-17.39-2.38,14.66,11.71-.88,2.99-18.56,1.61,15.93,7.37-2.19,7.49Z"/>
          <path class="cls-6" d="m122.57,176.31l-3.98,6.76-25.99-15.3,6.33-10.75c1.72-2.92,3.79-4.71,6.22-5.37,2.43-.66,5.02-.18,7.78,1.45,2.76,1.62,4.44,3.66,5.04,6.1.6,2.44.05,5.13-1.67,8.04l-2.35,4,8.62,5.07Zm-14.06-8.28l1.32-2.24c1.46-2.48,1.11-4.36-1.05-5.63s-3.97-.67-5.43,1.82l-1.32,2.24,6.48,3.81Z"/>
          <path class="cls-6" d="m118.22,130.62l17.75,15.44,6.17-7.09,5.01,4.36-11.31,13.01-22.76-19.79,5.15-5.92Z"/>
          <path class="cls-6" d="m152.02,108.17l-7.22,5.89,3.19,3.9,6.82-5.57,4.2,5.14-6.82,5.57,3.29,4.03,7.22-5.89,4.2,5.14-13.29,10.85-19.08-23.36,13.29-10.85,4.2,5.14Z"/>
          <path class="cls-6" d="m185.19,97.43c-.76-2.11-1.08-4.21-.95-6.31.12-2.1.63-4.07,1.52-5.93.89-1.85,2.16-3.5,3.81-4.96,1.64-1.46,3.62-2.6,5.93-3.43,2.28-.82,4.53-1.2,6.74-1.13,2.21.07,4.25.53,6.13,1.39,1.88.85,3.54,2.05,4.97,3.59,1.43,1.54,2.53,3.36,3.29,5.47s1.07,4.21.95,6.31c-.12,2.1-.64,4.08-1.54,5.93-.91,1.86-2.19,3.51-3.84,4.97-1.66,1.46-3.63,2.6-5.91,3.42-2.31.83-4.56,1.21-6.75,1.13-2.2-.08-4.23-.54-6.09-1.4s-3.52-2.06-4.95-3.6c-1.43-1.54-2.53-3.36-3.29-5.47Zm7.72-2.77c.41,1.13.99,2.09,1.76,2.89.77.8,1.64,1.42,2.62,1.86.98.44,2.02.68,3.13.72,1.11.04,2.2-.13,3.28-.52,1.08-.39,2.03-.95,2.86-1.69.83-.74,1.48-1.59,1.97-2.56.49-.97.77-2.01.86-3.11.08-1.11-.08-2.23-.48-3.35-.41-1.13-.99-2.09-1.76-2.89-.77-.8-1.65-1.42-2.64-1.85-.99-.44-2.04-.67-3.15-.72-1.11-.04-2.2.13-3.28.52-1.08.39-2.03.95-2.86,1.69-.83.74-1.48,1.59-1.95,2.55-.47.96-.75,2-.84,3.11-.08,1.11.08,2.23.48,3.35Z"/>
          <path class="cls-6" d="m245.34,73.51l-9.36,1.2.64,5,8.53-1.09.84,6.59-8.53,1.09,1.5,11.74-7.78,1-3.83-29.92,17.14-2.2.84,6.59Z"/>
          <path class="cls-6" d="m289.11,69.01l-3.71,23.23,9.28,1.48-1.05,6.56-17.02-2.72,4.76-29.78,7.74,1.24Z"/>
          <path class="cls-6" d="m326.06,85.87l-8.81-3.03-1.64,4.77,8.32,2.86-2.16,6.28-8.32-2.86-1.69,4.92,8.81,3.03-2.16,6.28-16.23-5.57,9.79-28.53,16.23,5.57-2.16,6.28Z"/>
          <path class="cls-6" d="m346.49,117l-9.63-5.72-4.22,3.59-7.19-4.27,25.27-20.07,7.36,4.37-5.53,31.79-7.19-4.27,1.13-5.42Zm1.26-6.19l2.1-10.43-8.15,6.83,6.05,3.6Z"/>
          <path class="cls-6" d="m376.85,149.13l-7.1-6.7,2.52-13.57-7.96,8.44-5.7-5.38,20.7-21.94,8.87,8.37c1.22,1.15,2.12,2.34,2.69,3.56.57,1.22.86,2.42.87,3.6,0,1.18-.23,2.32-.69,3.42-.47,1.1-1.14,2.11-2.02,3.04-1.57,1.67-3.25,2.64-5.04,2.92-1.78.28-3.64-.14-5.55-1.25l-1.59,15.5Zm-1.09-23.96l1.08,1.02c1.12,1.06,2.21,1.64,3.25,1.74,1.04.1,1.97-.28,2.8-1.16.82-.87,1.15-1.83.99-2.86s-.81-2.08-1.93-3.14l-1.08-1.02-5.11,5.41Z"/>
          <path class="cls-6" d="m381.92,155l25.21-16.55,4.3,6.55-7.47,22.23,15.41-10.12,4.28,6.52-25.21,16.55-4.28-6.52,7.47-22.23-15.42,10.12-4.3-6.55Z"/>
          <path class="cls-6" d="m433.53,186.22l-27.9,11.45-2.98-7.25,27.9-11.45,2.98,7.25Z"/>
          <path class="cls-6" d="m409.84,207.9l29.58-5.9,1.53,7.69-15.25,17.81,18.08-3.61,1.53,7.65-29.58,5.9-1.53-7.65,15.25-17.81-18.08,3.61-1.53-7.69Z"/>
          <path class="cls-6" d="m432.37,264.3l-.93,15.53c-1.6-.1-3.04-.25-4.34-.46-1.3-.21-2.49-.55-3.59-1.02-1.54-.65-2.88-1.49-4.04-2.53s-2.1-2.22-2.83-3.56-1.27-2.79-1.6-4.36c-.33-1.57-.45-3.21-.35-4.91.14-2.34.65-4.46,1.54-6.34.89-1.88,2.07-3.48,3.55-4.78,1.48-1.3,3.22-2.28,5.22-2.93,2-.65,4.19-.91,6.56-.77,2.34.14,4.47.65,6.38,1.52s3.52,2.05,4.82,3.54c1.3,1.48,2.28,3.23,2.93,5.25.65,2.02.91,4.23.76,6.66-.19,3.14-1.03,5.86-2.53,8.14-1.5,2.29-3.71,4.04-6.65,5.25l-2.63-7.61c1.69-.59,2.93-1.42,3.72-2.48.79-1.06,1.22-2.3,1.3-3.71.07-1.17-.09-2.25-.47-3.23-.38-.98-.96-1.84-1.73-2.57-.77-.73-1.72-1.32-2.84-1.77-1.12-.45-2.39-.72-3.8-.81-1.28-.08-2.47.02-3.58.29-1.11.27-2.09.71-2.92,1.33-.84.62-1.51,1.4-2.01,2.36-.5.96-.79,2.09-.86,3.39-.05.77,0,1.52.12,2.25s.37,1.39.72,1.99c.35.6.82,1.1,1.41,1.51.59.41,1.32.71,2.19.89l.39-6.43,6.07.36Z"/>
        </g>
        <polygon class="cls-6" points="103.54 301.35 106.58 310.78 116.49 310.76 108.46 316.57 111.54 325.98 103.54 320.15 95.54 325.98 98.61 316.57 90.59 310.76 100.49 310.78 103.54 301.35"/>
        <path class="cls-6" d="m240.91,356.26l2.2-13.62c-1.81-.32-3.62-.71-5.42-1.14,0,.03-3.92,13.26-3.92,13.26l-.29-.08c-.54-.16-1.07-.32-1.58-.48-.22-.07-.29-.32-.29-.46,0-.13.04-.21.06-.28l.58-1.97c.36-1.21.71-2.42,1.08-3.63-1.48-.43-2.9-.85-4.31-1.28-.11.32-.2.63-.29.93-.09.3-.18.59-.26.89-.1.33-.3.39-.46.39-.06,0-.13-.01-.2-.03-.25-.09-.55-.2-.84-.25-.37-.07-.63-.29-.79-.67-.41-1-.51-2.01-.3-2.99.04-.21.24-.42.42-.5.3-.14.62-.25.94-.35.07-.03.11-.06.13-.15.48-1.66.97-3.31,1.47-4.97l-.02-.03c-1.04-.36-1.96-.7-2.84-1.05l-.28-.11.77-1.96.28.11c7.38,2.9,15.13,4.78,23.04,5.61l.3.03-.22,2.09-.3-.03c-1.37-.14-2.74-.32-4.11-.53l-2.2,13.61-2.35-.38Zm-11.23-11.82c1.42.42,2.86.85,4.28,1.28l.48-1.61c.31-1.07.63-2.14.95-3.2-1.44-.39-2.88-.82-4.29-1.27-.45,1.54-1.42,4.81-1.42,4.81Zm34.8,11.17c-1.44,0-2.78-.6-4-1.77-1.11-1.07-1.91-2.37-2.44-3.97-.04-.13-.07-.45.15-.59.28-.18,1.49-.95,1.49-.95l.35-.23.1.41c.26,1.03.64,1.93,1.18,2.75.71,1.05,1.46,1.68,2.38,1.97.29.09.58.14.86.14.4,0,.8-.1,1.18-.3.74-.41,1-1.36.6-2.22-.34-.72-.96-1.14-1.99-1.37-.24-.05-.4-.09-.49-.25-.09-.17-.04-.33.03-.53.12-.37.25-.75.4-1.12.06-.18.28-.37.49-.41,1.26-.25,2.47-.49,3.67-.69.38-.06.75-.09,1.11-.09.83,0,1.61.18,2.3.53.51-.4.83-.89.91-1.43.09-.57-.09-1.16-.5-1.71-.04-.06-.06-.08-.08-.11l-.08-.09c-.19-.24-.37-.37-.61-.41-4.04.57-8.26.87-12.43.87-.53,0-1.05,0-1.58-.01h-.3s.04-2.1.04-2.1h.3c.51.01,1.03.02,1.54.02,7.91,0,15.76-1.05,23.37-3.13-2.25-1.11-4.38-2.47-6.27-3.67l-.42-.26.81-.47c.46-.27.9-.53,1.35-.77l.07-.04h.12c.16-.01.33.07.43.14.95.63,1.91,1.29,2.88,1.94l1.41.95c.71.49,1.42.97,2.14,1.45,1.22-.37,2.38-.75,3.46-1.13-.09-.2-.19-.39-.29-.58-.23-.47-.47-.95-.66-1.46-.55-1.46-.3-2.91.74-4.3.46-.63,1-1.08,1.64-1.37.77-.36,1.59-.75,2.37-1.21,1.1-.64,2.35-.96,3.96-1.01.13,0,.26,0,.39,0,1.7,0,3.21.33,4.62,1.02l.26.13-.87,1.9-.25-.07c-.22-.07-.44-.14-.66-.21-.39-.12-.77-.25-1.16-.33-.67-.16-1.35-.23-2.02-.23-1.16,0-2.33.23-3.49.7-1.13.45-1.92.92-2.56,1.54-.95.92-1.13,1.98-.53,3.17.18.38.38.75.57,1.13l.19.37c7.55-2.88,14.65-6.78,21.13-11.59-.72-.17-1.39-.55-1.9-1.1-.66-.72-.99-1.63-.94-2.58.07-1.35.76-2.43,2.04-3.19.68-.41,1.31-.62,1.97-.67l.25-.02.48,1.98-.25.09c-.14.05-.29.1-.43.15-.3.1-.59.2-.84.35-.53.32-.85.77-.9,1.27-.04.5.19,1,.66,1.42.48.42,1.05.63,1.74.63.11,0,.21,0,.32-.01,9.59-7.61,17.38-16.96,23.15-27.79l.14-.27,1.85.99-.14.26c-1.36,2.55-2.88,5.09-4.51,7.56,2.39,1.73,10.47,7.61,10.47,7.61.47.34.51.53.17.99l-1,1.38-3.75-2.72c.22,1.53-.27,2.96-1.48,4.25-1.06,1.13-2.42,1.72-3.92,1.73-.91,0-1.85-.21-2.8-.63l-.23-.11c-.1-.05-.2-.1-.3-.14-.54-.22-.4-.68-.35-.83.22-.64.43-1.27.52-1.89.15-1.11-.34-1.86-1.45-2.23-.18-.05-.37-.1-.57-.14-.1-.01-.2-.02-.29-.02-.19,0-.35.04-.48.12-.92,1.15-1.97,2.36-3.04,3.54l9.68,9.75-.21.21c-.4.4-.79.79-1.18,1.16l-.09.08h-.17c-.12.01-.27-.04-.37-.11-.17-.16-.31-.3-.45-.44l-1.41-1.42c-.8-.8-1.6-1.61-2.4-2.42-1.06,1.06-2.12,2.12-3.19,3.17,0,0,0,0,0,0,.25.24.45.45.66.66.22.23.45.45.67.67.09.09.2.23.2.42,0,.21-.16.34-.21.39-.1.09-.2.19-.29.28-.14.14-.28.28-.43.4-.14.12-.39.27-.65.27-1.13-.04-2.14-.45-3.03-1.21-.2-.16-.18-.47-.18-.53.02-.17.04-.33.07-.49.03-.19.06-.38.08-.56,0-.03-.02-.1-.04-.13-.72-.74-1.44-1.47-2.17-2.2-.48-.49-.96-.97-1.44-1.46-1.3,1.16-2.62,2.28-3.93,3.33.92,1.26,4.27,5.88,4.27,5.88,1.14,1.56,2.28,3.12,3.42,4.68.1.13.2.31.17.51-.04.21-.19.33-.32.42-.28.17-.53.36-.8.56l-.58.43-8.03-11.03c-1.03.78-2.07,1.53-3.08,2.23.81,1.12,1.58,2.18,2.35,3.23.8,1.1,1.6,2.19,2.4,3.29.09.13.2.3.16.51-.04.2-.18.32-.31.41-.19.12-.36.25-.53.38-.18.14-.37.27-.56.4-.08.05-.28.16-.51.16h-.13c-.98-.14-1.84-.65-2.63-1.56-.16-.17-.13-.46-.09-.6l.03-.1c.13-.39.26-.79.4-1.18.04-.09.03-.12-.02-.19-.85-1.15-1.68-2.29-2.51-3.44-1.26.82-2.58,1.64-3.94,2.43.26.44.5.87.74,1.3l6.04,10.64-.63.36c-.35.2-.69.4-1.04.57l-.06.03h-.11c-.14,0-.29-.07-.38-.13-.1-.08-.15-.18-.18-.24l-1.1-1.94c-.97-1.71-1.95-3.42-2.9-5.14-.64.34-1.24.68-1.85,1.02l-.9.51c-.6.34-.99.82-1.15,1.4-.16.58-.06,1.2.29,1.81.97,1.69,2.43,2.68,4.45,3.03l.69.12-.14.34c-.16.39-.31.76-.48,1.12-.04.1-.08.18-.1.24-.08.19-.17.43-.48.43-.09,0-.19-.02-.34-.05l-.19-.04c-2.66-.55-4.59-2.04-5.74-4.43-1.05-2.16-.31-4.47,1.85-5.74.97-.58,1.97-1.14,2.97-1.7,0,0,0,0,.01,0-.47-.82-.9-1.57-1.32-2.33-3.52,1.93-7.23,3.65-11.04,5.11l5.5,12.48-2.19.96-5.55-12.61c-1.13.4-2.28.78-3.43,1.14l3.98,13.12-2.28.69-3.99-13.13c-1.04.29-2.06.56-3.06.8l2.56,13.5-2.35.44-.86-4.54c-.94,1.29-2.28,1.99-4.01,2.08-.13,0-.26.01-.38.01-2.19,0-3.9-1.14-5.07-3.38l-.05-.11c-.11-.22-.22-.44-.28-.68-.04-.15-.1-.19-.24-.2h-.25c-.1-.02-.2-.02-.3-.02-.08,0-.16,0-.24.02-.48.08-.97.17-1.46.26,1.04.88,1.47,2.09,1.25,3.52-.22,1.47-1.14,2.5-2.68,2.98-.57.17-1.14.26-1.69.26Zm8.28-6.86c.8,1.71,2.18,1.96,2.94,1.96h0c.87,0,1.75-.31,2.36-.83.89-.75,1.23-1.8,1.01-3.11-.21-1.24-.44-2.49-.68-3.73l-.2-1.04c-1.32.28-2.66.54-3.98.76.94,1,1.28,2.36.89,3.53-.28.84-.85,1.54-1.73,2.12-.19.12-.4.23-.6.34Zm51.92-25.88c.84-.86,1.7-1.72,2.58-2.59l.58-.58-1.16-1.16c-.77-.77-1.54-1.54-2.3-2.32-.96,1-2,2.03-3.18,3.14l3.48,3.51Zm9.08-8.72c.46.19.9.28,1.33.28.88,0,1.67-.36,2.29-1.03.98-1.07,1.26-2.17.86-3.37-.22-.67-.66-1.25-1.29-1.72-1.01-.75-2.03-1.49-3.05-2.23l-.76-.55c-.82,1.16-1.6,2.23-2.38,3.25,1.82.12,3.22,1.51,3.32,3.33.04.65-.07,1.31-.33,2.04Zm-127.71,29.06l6.89-11.8c-1.48-.88-2.99-1.83-4.51-2.86l-8.13,11.1-1.95-1.43.37-.51c1.18-1.62,2.36-3.22,3.54-4.82-1.73-.93-3.01-2.03-3.99-3.39-.85-.02-1.61-.29-2.25-.79l.22,6.83-.49-.02c-.51-.02-.98-.04-1.45-.08-.29-.02-.42-.42-.42-.57-.03-1.08-.05-2.16-.07-3.25l-.05-2.52c-.02-1.25-.05-2.5-.07-3.75,0-.18.01-.38.15-.53.1-.1.24-.16.42-.16h.3c.27,0,.55-.01.83-.03h.02c.27,0,.58.08.62.54.1.88.55,1.49,1.37,1.88.16.08.31.12.46.12.3,0,.57-.15.8-.46.52-.69,1.03-1.39,1.54-2.09l1.04-1.43c-1.77-1.47-3.5-3.02-5.16-4.62,0,.01-.02.03-.05.06-3.21,2.96-6.43,5.91-9.65,8.86l-.49.45-.2-.22c-.4-.44-.72-.78-1.04-1.12-.15-.16-.33-.47.04-.8.27-.24.53-.48.79-.72l3.57-3.28c-1.02-1.11-2.02-2.21-3.02-3.31-.36.3-.7.61-1.04.92l-.77.7-.49-.53c-.24-.25-.47-.5-.69-.77-.17-.21-.14-.53-.1-.71.15-1.06.59-1.99,1.29-2.73.12-.13.32-.21.51-.21.25.02.41.06.58.09.17.03.34.07.51.08.01,0,.02,0,.03,0,.07,0,.1-.01.11-.02,1.28-1.16,2.55-2.32,3.81-3.48-1.36-1.61-2.67-3.29-3.9-4.98l-11.45,7.55-.48-.73c-.2-.3-.4-.6-.59-.9-.12-.19-.01-.44.09-.57.05-.08.14-.13.21-.17l6.81-4.49c-.57-.88-1.15-1.76-1.74-2.63-.45-.68-1.13-1.07-1.86-1.07-.45,0-.91.14-1.33.42-1.65,1.09-2.55,2.62-2.76,4.67l-.1.7-.48-.17c-.35-.12-.68-.24-1.01-.36-.11-.04-.19-.07-.26-.09-.47-.15-.48-.35-.42-.79l.03-.17c.39-2.81,1.82-4.88,4.23-6.14.65-.34,1.32-.51,2.02-.51,1.43,0,2.77.75,3.65,2.07.63.93,1.24,1.87,1.85,2.81.05.07.07.09.07.09.71-.54,1.42-1.01,2.13-1.47-1.7-2.46-3.25-4.95-4.61-7.4l-.15-.26,1.83-1.02.15.26c7.59,13.62,18.64,25.01,31.99,32.98-.67-2.45-1.08-4.96-1.42-7.15l-.07-.48.46.15c.65.21,1.26.41,1.87.62.25.08.33.41.35.51l.88,6.55c.05.35.1.71.14,1.06,1.41.79,2.59,1.42,3.71,1.98l.27.13-.94,1.88-.27-.13c-1.14-.57-2.33-1.2-3.73-1.98l-6.9,11.82-2.06-1.2Zm-5.58-14.42c.14.15.28.31.43.45.84.79,1.71,1.38,2.68,1.79.54-.69,1.01-1.34,1.49-1.99.45-.62.92-1.25,1.38-1.87-1.06-.75-2.14-1.57-3.31-2.49-.77,1.05-1.5,2.05-2.24,3.05-.2.28-.43.54-.66.79l.23.25Zm-9.71-8.54h0c1.22-1.12,2.44-2.24,3.67-3.35-1.02-1.05-2.05-2.15-3.05-3.28-1.21,1.12-2.42,2.23-3.63,3.34l3.01,3.29Zm5.3-1.71s.04,0,.05,0c-.01,0-.02-.02-.03-.03l-.02.02Zm49.84,21.32c-.37,0-.75-.04-1.13-.11-2.51-.46-4.23-2.01-4.71-4.25l-.06-.28,2.08-.56.08.29c.39,1.38,1.3,2.25,2.7,2.58.33.08.66.12.96.12.98,0,1.86-.41,2.61-1.22l.2-.22,1.57,1.43-.17.22c-.97,1.27-2.48,2-4.15,2.01Z"/>
        <path class="cls-6" d="m397.59,371.7c-13.67,0-24.74-11.08-24.74-24.74,0-6.37,2.41-12.17,6.35-16.55-1.32,1.16-2.54,2.47-3.63,3.94-4.3,5.83-9.08,11.37-14.19,16.49-27.33,27.33-63.67,42.38-102.32,42.38s-74.99-15.05-102.32-42.38c-5.12-5.12-9.9-10.67-14.2-16.49-1.11-1.5-2.36-2.84-3.71-4.02,3.99,4.39,6.42,10.23,6.42,16.63,0,13.67-11.08,24.74-24.74,24.74-7.75,0-14.66-3.56-19.19-9.13.32.5.64.99,1,1.47,5.77,7.82,12.19,15.28,19.07,22.16,36.77,36.78,85.67,57.03,137.68,57.03s100.9-20.25,137.68-57.03c6.88-6.88,13.29-14.33,19.07-22.15.39-.52.74-1.06,1.08-1.6-4.54,5.64-11.49,9.26-19.29,9.26Z"/>
        <g>
          <path class="cls-1" d="m200.38,209.7c-.52.07-1.04.14-1.57.22v60.57c17.79.44,31.71,8.53,40.34,15.34,5.62,4.43,9.72,8.83,12.2,11.78v-42.5c0-27.33-23.86-48.86-50.98-45.41Z"/>
          <path class="cls-10" d="m314.12,209.7c.52.07,1.04.14,1.57.22v60.57c-17.79.44-31.71,8.53-40.34,15.34-5.62,4.43-9.72,8.83-12.2,11.78v-42.5c0-27.33,23.86-48.86,50.98-45.41Z"/>
          <path class="cls-8" d="m257.25,225.71s-12.14-31.97-53.49-23.64c13.41-.58,26.64,4.07,36.86,13.07,8.36,7.36,14.12,17.08,16.63,27.73,2.52-10.64,8.28-20.37,16.63-27.73,10.21-9,23.45-13.64,36.86-13.07-41.35-8.33-53.49,23.64-53.49,23.64Z"/>
          <path class="cls-9" d="m257.25,216.78s7.96-20.95,32.93-24.51c-25.43-4.06-32.93,12.45-32.93,12.45,0,0-7.5-16.51-32.93-12.45,24.97,3.56,32.93,24.51,32.93,24.51Z"/>
          <g>
            <path class="cls-6" d="m322.12,283.22c-21.61,1.57-37.77,8.72-47.48,14.39,8.96-8.61,24.88-20.1,46.09-20.1h1.53v-56.26h.07c3.92.22,6.99,3.47,6.99,7.39v46.89c0,4.06-3.15,7.39-7.2,7.69Z"/>
            <path class="cls-6" d="m192.38,283.22c21.61,1.57,37.77,8.72,47.48,14.39-8.96-8.61-24.88-20.1-46.09-20.1h-1.53v-56.26h-.07c-3.92.22-6.99,3.47-6.99,7.39v46.89c0,4.06,3.15,7.39,7.2,7.69Z"/>
          </g>
          <path class="cls-7" d="m275.34,285.83c8.63-6.81,22.55-14.9,40.34-15.34v-60.57c-.52-.08-1.05-.15-1.57-.22-1.73-.22-3.44-.34-5.14-.36,4.91,14.42,3.54,31.01-4.17,44.19-8.6,14.7-24.74,24.6-41.66,25.99v18.08c2.48-2.95,6.58-7.35,12.2-11.78Z"/>
          <path class="cls-7" d="m251.36,297.61v-42.5c0-9.93-3.16-19.08-8.47-26.56,1.6,5.47,2.78,11.06,3.48,16.71.49,3.94.74,8.09-.79,11.76-2.13,5.1-7.29,8.3-12.5,10.14-11.1,3.93-23.78,3.02-34.27-2.3v5.62c17.79.44,31.71,8.53,40.34,15.34,5.62,4.43,9.72,8.83,12.2,11.78Z"/>
          <path class="cls-2" d="m268.15,259.3c2.58-8.46,5.8-16.74,10.32-24.33,4.02-6.75,9.12-12.94,15.27-17.78-4.23,1.69-8.2,4.1-11.71,7.19-8.83,7.77-13.89,18.97-13.89,30.73v4.19Z"/>
          <path class="cls-2" d="m205.81,214.41c1.58,7.07,1.95,14.2,2,21.39-.04,7.18-.41,14.32-2,21.39-1.59-7.07-1.96-14.2-2-21.39.05-7.18.42-14.32,2-21.39h0Z"/>
        </g>
        <path class="cls-11" d="m255.57,155.28c6.54,14.39-23.36,25.52,1.17,36.37-11.7-16.62,16.22-16.41-1.17-36.37m7.36,13.16c-1.17,9.12-12.61,11.36-4.9,22.31l.72,1.02c1.76-4.49,12.01-9.35,7.87-18.22,1.5,3.96-3.2,8.7-5.93,10.27,1.59-3.8,7.84-7.09,3.12-14.42-.28-.32-.57-.64-.88-.96Z"/>
        <polygon class="cls-6" points="416.77 301.35 419.81 310.78 429.71 310.76 421.69 316.57 424.77 325.98 416.77 320.15 408.76 325.98 411.84 316.57 403.82 310.76 413.72 310.78 416.77 301.35"/>
        <g>
          <path class="cls-4" d="m159.9,383.75l8.23-1.34,2.42,1.79-9.47,1.43.61,10.63-2.43-1.8-.38-8.56-.65.1-3.68,4.98-1.82-1.34,8.89-12.04,1.82,1.34-3.55,4.8Z"/>
          <path class="cls-4" d="m181.62,390.96l-4.27,7.94c-.61,1.13-.87,2.06-.78,2.78.14,1.05.72,1.85,1.72,2.39,1.01.54,1.99.58,2.95.12.64-.31,1.27-1.04,1.89-2.19l4.27-7.94,1.99,1.07-4.56,8.49c-.75,1.39-1.79,2.3-3.14,2.73-1.51.48-2.98.34-4.39-.42-1.42-.76-2.34-1.9-2.77-3.43-.38-1.36-.2-2.74.55-4.13l4.56-8.49,1.99,1.07Z"/>
          <path class="cls-4" d="m204.91,401.69l-3.46,9.04c-.41,1.08-.8,1.86-1.15,2.33-.38.55-.83.96-1.35,1.24-1.02.56-2.12.61-3.28.17-.88-.34-1.62-.88-2.21-1.63l1.72-1.41c.38.54.8.9,1.24,1.07.63.24,1.15.17,1.58-.22.44-.38.88-1.16,1.34-2.35l3.46-9.04,2.12.81Z"/>
          <path class="cls-4" d="m221.95,418.49l-6.22-1.52-2.48,3.14-2.36-.58,10.97-13.69,3.17,17.14-2.4-.59-.66-3.9Zm-.39-2.28l-.95-5.47-3.47,4.39,4.42,1.08Z"/>
          <path class="cls-4" d="m240.32,419.06l-.63,6.04-2.25-.23,1.55-14.88,2.54.26c1.25.13,2.18.31,2.8.55.62.24,1.16.63,1.59,1.16.77.92,1.09,2.02.95,3.29-.14,1.36-.71,2.39-1.71,3.1s-2.27.97-3.82.81l-1.04-.11Zm.22-2.08l.84.09c2.06.21,3.18-.47,3.34-2.06.16-1.54-.82-2.42-2.95-2.64l-.74-.08-.49,4.68Z"/>
          <path class="cls-4" d="m260.72,411.2l.12,14.96-2.26.02-.12-14.96,2.26-.02Z"/>
          <path class="cls-4" d="m297.06,413.99l6.03-1.38.11.48c.25,1.1.34,2.1.28,3-.07.84-.33,1.67-.77,2.48-1.01,1.83-2.55,2.99-4.65,3.47-2.04.47-3.96.13-5.75-1.01-1.79-1.15-2.93-2.76-3.4-4.83-.48-2.12-.15-4.08.99-5.89,1.14-1.82,2.77-2.97,4.9-3.46,1.14-.26,2.26-.27,3.35-.03,1.05.25,2.15.79,3.31,1.63l-1.22,1.86c-1.56-1.32-3.2-1.78-4.92-1.39-1.54.35-2.72,1.18-3.52,2.48-.81,1.29-1.03,2.71-.67,4.29.37,1.63,1.26,2.83,2.67,3.62,1.31.73,2.61.95,3.88.65,1.08-.25,1.97-.83,2.67-1.76.69-.93.97-1.93.84-2.98l-3.64.83-.47-2.07Z"/>
          <path class="cls-4" d="m324.04,409.63l-5.96,2.35-.22,3.99-2.26.89,1.05-17.51,12.48,12.18-2.3.91-2.79-2.81Zm-1.63-1.64l-3.93-3.92-.3,5.59,4.23-1.67Z"/>
          <path class="cls-4" d="m338.71,399.42l-8.4-5.05,2.27-1.26,5.9,3.56.09-6.89,2.27-1.26-.16,9.81,3.14,5.65-1.97,1.1-3.14-5.65Z"/>
          <path class="cls-4" d="m362.25,387.43l-5.15,3.82.83,3.91-1.95,1.45-3.53-17.19,15.21,8.52-1.99,1.47-3.43-1.98Zm-2-1.16l-4.81-2.76,1.16,5.47,3.65-2.71Z"/>
        </g>
      </g>
    </g>
  </g>
</svg>